mtllib Part Studio 1.mtl
g Part 1
usemtl 0.615686_0.811765_0.929412_0.000000_0.000000
o mesh0
v -0.00129743 0 0.0119297 
v 0 0 0.012 
v 0 -0.025 0.012 
v -0.00257965 0 0.0117194 
v -0.00129743 -0.025 0.0119297 
v -0.00383162 0 0.0113718 
v -0.00257965 -0.025 0.0117194 
v -0.00503867 0 0.0108909 
v -0.00383162 -0.025 0.0113718 
v -0.00618665 0 0.0102823 
v -0.00503867 -0.025 0.0108909 
v -0.00726209 0 0.00955312 
v -0.00618665 -0.025 0.0102823 
v -0.00825239 0 0.00871195 
v -0.00726209 -0.025 0.00955312 
v -0.00914594 0 0.00776864 
v -0.00825239 -0.025 0.00871195 
v -0.00993227 0 0.00673424 
v -0.00914594 -0.025 0.00776864 
v -0.0106021 0 0.0056209 
v -0.00993227 -0.025 0.00673424 
v -0.0111477 0 0.00444166 
v -0.0106021 -0.025 0.0056209 
v -0.0115626 0 0.00321034 
v -0.0111477 -0.025 0.00444166 
v -0.0118419 0 0.00194138 
v -0.0115626 -0.025 0.00321034 
v -0.0119824 0 0.000649667 
v -0.0118419 -0.025 0.00194138 
v -0.0119824 0 -0.000649667 
v -0.0119824 -0.025 0.000649667 
v -0.0118419 0 -0.00194138 
v -0.0119824 -0.025 -0.000649667 
v -0.0115626 0 -0.00321034 
v -0.0118419 -0.025 -0.00194138 
v -0.0111477 0 -0.00444166 
v -0.0115626 -0.025 -0.00321034 
v -0.0106021 0 -0.0056209 
v -0.0111477 -0.025 -0.00444166 
v -0.00993227 0 -0.00673424 
v -0.0106021 -0.025 -0.0056209 
v -0.00914594 0 -0.00776864 
v -0.00993227 -0.025 -0.00673424 
v -0.00825239 0 -0.00871195 
v -0.00914594 -0.025 -0.00776864 
v -0.00726209 0 -0.00955312 
v -0.00825239 -0.025 -0.00871195 
v -0.00618665 0 -0.0102823 
v -0.00726209 -0.025 -0.00955312 
v -0.00503867 0 -0.0108909 
v -0.00618665 -0.025 -0.0102823 
v -0.00383162 0 -0.0113718 
v -0.00503867 -0.025 -0.0108909 
v -0.00257965 0 -0.0117194 
v -0.00383162 -0.025 -0.0113718 
v -0.00129743 0 -0.0119297 
v -0.00257965 -0.025 -0.0117194 
v 4.40873e-18 0 -0.012 
v -0.00129743 -0.025 -0.0119297 
v 0.00129743 0 -0.0119297 
v 1.46958e-18 -0.025 -0.012 
v 0.00257965 0 -0.0117194 
v 0.00129743 -0.025 -0.0119297 
v 0.00383162 0 -0.0113718 
v 0.00257965 -0.025 -0.0117194 
v 0.00503867 0 -0.0108909 
v 0.00383162 -0.025 -0.0113718 
v 0.00618665 0 -0.0102823 
v 0.00503867 -0.025 -0.0108909 
v 0.00726209 0 -0.00955312 
v 0.00618665 -0.025 -0.0102823 
v 0.00825239 0 -0.00871195 
v 0.00726209 -0.025 -0.00955312 
v 0.00914594 0 -0.00776864 
v 0.00825239 -0.025 -0.00871195 
v 0.00993227 0 -0.00673424 
v 0.00914594 -0.025 -0.00776864 
v 0.0106021 0 -0.0056209 
v 0.00993227 -0.025 -0.00673424 
v 0.0111477 0 -0.00444166 
v 0.0106021 -0.025 -0.0056209 
v 0.0115626 0 -0.00321034 
v 0.0111477 -0.025 -0.00444166 
v 0.0118419 0 -0.00194138 
v 0.0115626 -0.025 -0.00321034 
v 0.0119824 0 -0.000649667 
v 0.0118419 -0.025 -0.00194138 
v 0.0119824 0 0.000649667 
v 0.0119824 -0.025 -0.000649667 
v 0.0118419 0 0.00194138 
v 0.0119824 -0.025 0.000649667 
v 0.0115626 0 0.00321034 
v 0.0118419 -0.025 0.00194138 
v 0.0111477 0 0.00444166 
v 0.0115626 -0.025 0.00321034 
v 0.0106021 0 0.0056209 
v 0.0111477 -0.025 0.00444166 
v 0.00993227 0 0.00673424 
v 0.0106021 -0.025 0.0056209 
v 0.00914594 0 0.00776864 
v 0.00993227 -0.025 0.00673424 
v 0.00825239 0 0.00871195 
v 0.00914594 -0.025 0.00776864 
v 0.00726209 0 0.00955312 
v 0.00825239 -0.025 0.00871195 
v 0.00618665 0 0.0102823 
v 0.00726209 -0.025 0.00955312 
v 0.00503867 0 0.0108909 
v 0.00618665 -0.025 0.0102823 
v 0.00383162 0 0.0113718 
v 0.00503867 -0.025 0.0108909 
v 0.00257965 0 0.0117194 
v 0.00383162 -0.025 0.0113718 
v 0.00129743 0 0.0119297 
v 0.00257965 -0.025 0.0117194 
v 0.00129743 -0.025 0.0119297 
vn 0.108119 -0 -0.994138 
vn 2.44929e-16 -0 -1 
vn 2.44929e-16 -0 -1 
vn 0.21497 -0 -0.976621 
vn 0.108119 -0 -0.994138 
vn 0.319302 -0 -0.947653 
vn 0.21497 -0 -0.976621 
vn 0.419889 -0 -0.907575 
vn 0.319302 -0 -0.947653 
vn 0.515554 -0 -0.856857 
vn 0.419889 -0 -0.907575 
vn 0.605174 -0 -0.796093 
vn 0.515554 -0 -0.856857 
vn 0.687699 -0 -0.725995 
vn 0.605174 -0 -0.796093 
vn 0.762162 -0 -0.647386 
vn 0.687699 -0 -0.725995 
vn 0.827689 -0 -0.561187 
vn 0.762162 -0 -0.647386 
vn 0.883512 -0 -0.468408 
vn 0.827689 -0 -0.561187 
vn 0.928977 -0 -0.370138 
vn 0.883512 -0 -0.468408 
vn 0.96355 -0 -0.267528 
vn 0.928977 -0 -0.370138 
vn 0.986827 -0 -0.161782 
vn 0.96355 -0 -0.267528 
vn 0.998533 -0 -0.0541389 
vn 0.986827 -0 -0.161782 
vn 0.998533 -0 0.0541389 
vn 0.998533 -0 -0.0541389 
vn 0.986827 -0 0.161782 
vn 0.998533 -0 0.0541389 
vn 0.96355 -0 0.267528 
vn 0.986827 -0 0.161782 
vn 0.928977 -0 0.370138 
vn 0.96355 -0 0.267528 
vn 0.883512 -0 0.468408 
vn 0.928977 -0 0.370138 
vn 0.827689 -0 0.561187 
vn 0.883512 -0 0.468408 
vn 0.762162 -0 0.647386 
vn 0.827689 -0 0.561187 
vn 0.687699 -0 0.725995 
vn 0.762162 -0 0.647386 
vn 0.605174 -0 0.796093 
vn 0.687699 -0 0.725995 
vn 0.515554 -0 0.856857 
vn 0.605174 -0 0.796093 
vn 0.419889 -0 0.907575 
vn 0.515554 -0 0.856857 
vn 0.319302 -0 0.947653 
vn 0.419889 -0 0.907575 
vn 0.21497 -0 0.976621 
vn 0.319302 -0 0.947653 
vn 0.108119 -0 0.994138 
vn 0.21497 -0 0.976621 
vn -1.22465e-16 -0 1 
vn 0.108119 -0 0.994138 
vn -0.108119 -0 0.994138 
vn -1.22465e-16 -0 1 
vn -0.21497 -0 0.976621 
vn -0.108119 -0 0.994138 
vn -0.319302 -0 0.947653 
vn -0.21497 -0 0.976621 
vn -0.419889 -0 0.907575 
vn -0.319302 -0 0.947653 
vn -0.515554 -0 0.856857 
vn -0.419889 -0 0.907575 
vn -0.605174 -0 0.796093 
vn -0.515554 -0 0.856857 
vn -0.687699 -0 0.725995 
vn -0.605174 -0 0.796093 
vn -0.762162 -0 0.647386 
vn -0.687699 -0 0.725995 
vn -0.827689 -0 0.561187 
vn -0.762162 -0 0.647386 
vn -0.883512 -0 0.468408 
vn -0.827689 -0 0.561187 
vn -0.928977 -0 0.370138 
vn -0.883512 -0 0.468408 
vn -0.96355 -0 0.267528 
vn -0.928977 -0 0.370138 
vn -0.986827 -0 0.161782 
vn -0.96355 -0 0.267528 
vn -0.998533 -0 0.0541389 
vn -0.986827 -0 0.161782 
vn -0.998533 0 -0.0541389 
vn -0.998533 -0 0.0541389 
vn -0.986827 0 -0.161782 
vn -0.998533 0 -0.0541389 
vn -0.96355 0 -0.267528 
vn -0.986827 0 -0.161782 
vn -0.928977 0 -0.370138 
vn -0.96355 0 -0.267528 
vn -0.883512 0 -0.468408 
vn -0.928977 0 -0.370138 
vn -0.827689 0 -0.561187 
vn -0.883512 0 -0.468408 
vn -0.762162 0 -0.647386 
vn -0.827689 0 -0.561187 
vn -0.687699 0 -0.725995 
vn -0.762162 0 -0.647386 
vn -0.605174 0 -0.796093 
vn -0.687699 0 -0.725995 
vn -0.515554 0 -0.856857 
vn -0.605174 0 -0.796093 
vn -0.419889 0 -0.907575 
vn -0.515554 0 -0.856857 
vn -0.319302 0 -0.947653 
vn -0.419889 0 -0.907575 
vn -0.21497 0 -0.976621 
vn -0.319302 0 -0.947653 
vn -0.108119 0 -0.994138 
vn -0.21497 0 -0.976621 
vn -0.108119 0 -0.994138 
f 1//1 2//2 3//3 
f 4//4 1//1 5//5 
f 6//6 4//4 7//7 
f 8//8 6//6 9//9 
f 10//10 8//8 11//11 
f 12//12 10//10 13//13 
f 14//14 12//12 15//15 
f 16//16 14//14 17//17 
f 18//18 16//16 19//19 
f 20//20 18//18 21//21 
f 22//22 20//20 23//23 
f 24//24 22//22 25//25 
f 26//26 24//24 27//27 
f 28//28 26//26 29//29 
f 30//30 28//28 31//31 
f 32//32 30//30 33//33 
f 34//34 32//32 35//35 
f 36//36 34//34 37//37 
f 38//38 36//36 39//39 
f 40//40 38//38 41//41 
f 42//42 40//40 43//43 
f 44//44 42//42 45//45 
f 46//46 44//44 47//47 
f 48//48 46//46 49//49 
f 50//50 48//48 51//51 
f 52//52 50//50 53//53 
f 54//54 52//52 55//55 
f 56//56 54//54 57//57 
f 58//58 56//56 59//59 
f 60//60 58//58 61//61 
f 62//62 60//60 63//63 
f 64//64 62//62 65//65 
f 66//66 64//64 67//67 
f 68//68 66//66 69//69 
f 70//70 68//68 71//71 
f 72//72 70//70 73//73 
f 74//74 72//72 75//75 
f 76//76 74//74 77//77 
f 78//78 76//76 79//79 
f 80//80 78//78 81//81 
f 82//82 80//80 83//83 
f 84//84 82//82 85//85 
f 86//86 84//84 87//87 
f 88//88 86//86 89//89 
f 90//90 88//88 91//91 
f 92//92 90//90 93//93 
f 94//94 92//92 95//95 
f 96//96 94//94 97//97 
f 98//98 96//96 99//99 
f 100//100 98//98 101//101 
f 102//102 100//100 103//103 
f 104//104 102//102 105//105 
f 106//106 104//104 107//107 
f 108//108 106//106 109//109 
f 110//110 108//108 111//111 
f 112//112 110//110 113//113 
f 114//114 112//112 115//115 
f 2//2 114//114 116//116 
f 116//116 3//3 2//2 
f 115//115 116//116 114//114 
f 113//113 115//115 112//112 
f 111//111 113//113 110//110 
f 109//109 111//111 108//108 
f 107//107 109//109 106//106 
f 105//105 107//107 104//104 
f 103//103 105//105 102//102 
f 101//101 103//103 100//100 
f 99//99 101//101 98//98 
f 97//97 99//99 96//96 
f 95//95 97//97 94//94 
f 93//93 95//95 92//92 
f 91//91 93//93 90//90 
f 89//89 91//91 88//88 
f 87//87 89//89 86//86 
f 85//85 87//87 84//84 
f 83//83 85//85 82//82 
f 81//81 83//83 80//80 
f 79//79 81//81 78//78 
f 77//77 79//79 76//76 
f 75//75 77//77 74//74 
f 73//73 75//75 72//72 
f 71//71 73//73 70//70 
f 69//69 71//71 68//68 
f 67//67 69//69 66//66 
f 65//65 67//67 64//64 
f 63//63 65//65 62//62 
f 61//61 63//63 60//60 
f 59//59 61//61 58//58 
f 57//57 59//59 56//56 
f 55//55 57//57 54//54 
f 53//53 55//55 52//52 
f 51//51 53//53 50//50 
f 49//49 51//51 48//48 
f 47//47 49//49 46//46 
f 45//45 47//47 44//44 
f 43//43 45//45 42//42 
f 41//41 43//43 40//40 
f 39//39 41//41 38//38 
f 37//37 39//39 36//36 
f 35//35 37//37 34//34 
f 33//33 35//35 32//32 
f 31//31 33//33 30//30 
f 29//29 31//31 28//28 
f 27//27 29//29 26//26 
f 25//25 27//27 24//24 
f 23//23 25//25 22//22 
f 21//21 23//23 20//20 
f 19//19 21//21 18//18 
f 17//17 19//19 16//16 
f 15//15 17//17 14//14 
f 13//13 15//15 12//12 
f 11//11 13//13 10//10 
f 9//9 11//11 8//8 
f 7//7 9//9 6//6 
f 5//5 7//7 4//4 
f 3//3 5//5 1//1 
o mesh1
v 0.145 -0.025 -0.02 
v 0.0111477 -0.025 -0.00444166 
v 0.0106021 -0.025 -0.0056209 
v 0.145 -0.025 0.02 
v -0.04 -0.025 0.035 
v 0.00257965 -0.025 0.0117194 
v 0.00825239 -0.025 -0.00871195 
v 0.00726209 -0.025 -0.00955312 
v 0.00993227 -0.025 -0.00673424 
v 0.00726209 -0.025 0.00955312 
v 0.00825239 -0.025 0.00871195 
v 0.00503867 -0.025 0.0108909 
v 0.00618665 -0.025 0.0102823 
v 0.00129743 -0.025 0.0119297 
v -0.00503867 -0.025 0.0108909 
v -0.00383162 -0.025 0.0113718 
v -0.00726209 -0.025 0.00955312 
v -0.00618665 -0.025 0.0102823 
v -0.0434615 -0.025 0.0307521 
v -0.00993227 -0.025 0.00673424 
v -0.00914594 -0.025 0.00776864 
v -0.0464578 -0.025 0.0261643 
v -0.0106021 -0.025 0.0056209 
v -0.0489559 -0.025 0.0212872 
v -0.0111477 -0.025 0.00444166 
v 0.00503867 -0.025 -0.0108909 
v 0.00383162 -0.025 -0.0113718 
v 0.00618665 -0.025 -0.0102823 
v 0.00914594 -0.025 -0.00776864 
v 0.00914594 -0.025 0.00776864 
v 0.00383162 -0.025 0.0113718 
v -0.00257965 -0.025 0.0117194 
v -0.00129743 -0.025 0.0119297 
v -0.04 -0.025 -0.035 
v 0.00257965 -0.025 -0.0117194 
v 0.00993227 -0.025 0.00673424 
v 0.0106021 -0.025 0.0056209 
v 0 -0.025 0.012 
v -0.00825239 -0.025 0.00871195 
v -0.0509281 -0.025 0.0161748 
v -0.0115626 -0.025 0.00321034 
v -0.0523525 -0.025 0.0108836 
v -0.0118419 -0.025 0.00194138 
v -0.0489559 -0.025 -0.0212872 
v -0.0464578 -0.025 -0.0261643 
v -0.0106021 -0.025 -0.0056209 
v -0.0434615 -0.025 -0.0307521 
v -0.00993227 -0.025 -0.00673424 
v -0.00914594 -0.025 -0.00776864 
v 0.00129743 -0.025 -0.0119297 
v 0.0119824 -0.025 -0.000649667 
v 0.0118419 -0.025 -0.00194138 
v 0.155 -0.025 -0.016 
v 0.155 -0.025 0.016 
v 0.0119824 -0.025 0.000649667 
v -0.0535017 -0.025 -4.89226e-17 
v -0.0119824 -0.025 -0.000649667 
v -0.0119824 -0.025 0.000649667 
v -0.0523525 -0.025 -0.0108836 
v -0.0509281 -0.025 -0.0161748 
v -0.0115626 -0.025 -0.00321034 
v -0.0111477 -0.025 -0.00444166 
v -0.00825239 -0.025 -0.00871195 
v -0.00618665 -0.025 -0.0102823 
v -0.00726209 -0.025 -0.00955312 
v -0.00383162 -0.025 -0.0113718 
v -0.00503867 -0.025 -0.0108909 
v -0.00129743 -0.025 -0.0119297 
v -0.00257965 -0.025 -0.0117194 
v 0.0115626 -0.025 -0.00321034 
v -0.0532136 -0.025 0.00547204 
v 1.46958e-18 -0.025 -0.012 
v 0.0118419 -0.025 0.00194138 
v 0.0111477 -0.025 0.00444166 
v 0.0115626 -0.025 0.00321034 
v -0.0532136 -0.025 -0.00547204 
v -0.0118419 -0.025 -0.00194138 
vn 0 -1 0 
vn 0 -1 0 
vn 0 -1 0 
vn 0 -1 0 
vn 0 -1 0 
vn 0 -1 0 
vn 0 -1 0 
vn 0 -1 0 
vn 0 -1 0 
vn 0 -1 0 
vn 0 -1 0 
vn 0 -1 0 
vn 0 -1 0 
vn 0 -1 0 
vn 0 -1 0 
vn 0 -1 0 
vn 0 -1 0 
vn 0 -1 0 
vn 0 -1 0 
vn 0 -1 0 
vn 0 -1 0 
vn 0 -1 0 
vn 0 -1 0 
vn 0 -1 0 
vn 0 -1 0 
vn 0 -1 0 
vn 0 -1 0 
vn 0 -1 0 
vn 0 -1 0 
vn 0 -1 0 
vn 0 -1 0 
vn 0 -1 0 
vn 0 -1 0 
vn 0 -1 0 
vn 0 -1 0 
vn 0 -1 0 
vn 0 -1 0 
vn 0 -1 0 
vn 0 -1 0 
vn 0 -1 0 
vn 0 -1 0 
vn 0 -1 0 
vn 0 -1 0 
vn 0 -1 0 
vn 0 -1 0 
vn 0 -1 0 
vn 0 -1 0 
vn 0 -1 0 
vn 0 -1 0 
vn 0 -1 0 
vn 0 -1 0 
vn 0 -1 0 
vn 0 -1 0 
vn 0 -1 0 
vn 0 -1 0 
vn 0 -1 0 
vn 0 -1 0 
vn 0 -1 0 
vn 0 -1 0 
vn 0 -1 0 
vn 0 -1 0 
vn 0 -1 0 
vn 0 -1 0 
vn 0 -1 0 
vn 0 -1 0 
vn 0 -1 0 
vn 0 -1 0 
vn 0 -1 0 
vn 0 -1 0 
vn 0 -1 0 
vn 0 -1 0 
vn 0 -1 0 
vn 0 -1 0 
vn 0 -1 0 
vn 0 -1 0 
vn 0 -1 0 
vn 0 -1 0 
f 117//117 118//118 119//119 
f 120//120 121//121 122//122 
f 117//117 123//123 124//124 
f 119//119 125//125 117//117 
f 120//120 126//126 127//127 
f 120//120 128//128 129//129 
f 121//121 130//130 122//122 
f 121//121 131//131 132//132 
f 121//121 133//133 134//134 
f 135//135 136//136 137//137 
f 138//138 139//139 136//136 
f 140//140 141//141 139//139 
f 117//117 142//142 143//143 
f 124//124 144//144 117//117 
f 125//125 145//145 117//117 
f 129//129 126//126 120//120 
f 127//127 146//146 120//120 
f 122//122 147//147 120//120 
f 121//121 148//148 149//149 
f 134//134 131//131 121//121 
f 137//137 121//121 135//135 
f 139//139 138//138 140//140 
f 143//143 150//150 117//117 
f 143//143 151//151 150//150 
f 145//145 123//123 117//117 
f 120//120 152//152 153//153 
f 147//147 128//128 120//120 
f 149//149 154//154 121//121 
f 121//121 155//155 133//133 
f 136//136 135//135 138//138 
f 156//156 157//157 141//141 
f 158//158 159//159 157//157 
f 160//160 161//161 162//162 
f 161//161 163//163 164//164 
f 163//163 150//150 165//165 
f 150//150 151//151 166//166 
f 144//144 142//142 117//117 
f 167//167 168//168 117//117 
f 169//169 170//170 171//171 
f 120//120 146//146 152//152 
f 154//154 130//130 121//121 
f 137//137 155//155 121//121 
f 157//157 156//156 158//158 
f 172//172 173//173 174//174 
f 175//175 176//176 177//177 
f 176//176 160//160 178//178 
f 164//164 162//162 161//161 
f 150//150 179//179 165//165 
f 150//150 180//180 181//181 
f 150//150 182//182 183//183 
f 150//150 184//184 185//185 
f 117//117 168//168 186//186 
f 171//171 167//167 169//169 
f 171//171 170//170 120//120 
f 141//141 140//140 156//156 
f 187//187 174//174 159//159 
f 174//174 187//187 172//172 
f 178//178 177//177 176//176 
f 165//165 164//164 163//163 
f 183//183 180//180 150//150 
f 150//150 188//188 184//184 
f 186//186 118//118 117//117 
f 120//120 189//189 171//171 
f 120//120 190//190 191//191 
f 132//132 148//148 121//121 
f 172//172 192//192 173//173 
f 192//192 175//175 193//193 
f 162//162 178//178 160//160 
f 185//185 182//182 150//150 
f 117//117 169//169 167//167 
f 153//153 190//190 120//120 
f 193//193 173//173 192//192 
f 181//181 179//179 150//150 
f 191//191 189//189 120//120 
f 177//177 193//193 175//175 
f 159//159 158//158 187//187 
f 166//166 188//188 150//150 
o mesh2
v 0.145 0 0.02 
v 0.00825239 0 0.00871195 
v 0.00726209 0 0.00955312 
v -0.04 0 0.035 
v 0.00383162 0 0.0113718 
v 0.00257965 0 0.0117194 
v 0.00503867 0 0.0108909 
v 0.00618665 0 0.0102823 
v 0.145 0 -0.02 
v 0.00993227 0 -0.00673424 
v 0.0106021 0 -0.0056209 
v 0.00129743 0 0.0119297 
v 0.00914594 0 0.00776864 
v 0.00914594 0 -0.00776864 
v 0.00503867 0 -0.0108909 
v 0.00618665 0 -0.0102823 
v -0.04 0 -0.035 
v 4.40873e-18 0 -0.012 
v 0.00129743 0 -0.0119297 
v 0.0111477 0 0.00444166 
v 0.0106021 0 0.0056209 
v 0.00825239 0 -0.00871195 
v 0.00726209 0 -0.00955312 
v 0.00257965 0 -0.0117194 
v -0.00129743 0 -0.0119297 
v -0.00383162 0 -0.0113718 
v -0.00257965 0 -0.0117194 
v -0.00618665 0 -0.0102823 
v -0.00503867 0 -0.0108909 
v -0.00825239 0 -0.00871195 
v -0.00726209 0 -0.00955312 
v 0.00993227 0 0.00673424 
v 0.0119824 0 0.000649667 
v 0.0118419 0 0.00194138 
v 0.155 0 0.016 
v 0.155 0 -0.016 
v 0.0119824 0 -0.000649667 
v 0.00383162 0 -0.0113718 
v 0.0115626 0 0.00321034 
v -0.0434615 0 -0.0307521 
v -0.00993227 0 -0.00673424 
v -0.00914594 0 -0.00776864 
v -0.0464578 0 -0.0261643 
v -0.0106021 0 -0.0056209 
v -0.0489559 0 -0.0212872 
v -0.0111477 0 -0.00444166 
v -0.0489559 0 0.0212872 
v -0.0464578 0 0.0261643 
v -0.0106021 0 0.0056209 
v -0.0434615 0 0.0307521 
v -0.00993227 0 0.00673424 
v -0.00914594 0 0.00776864 
v 0.0118419 0 -0.00194138 
v 0.0111477 0 -0.00444166 
v 0.0115626 0 -0.00321034 
v -0.0509281 0 -0.0161748 
v -0.0115626 0 -0.00321034 
v -0.0523525 0 -0.0108836 
v -0.0118419 0 -0.00194138 
v -0.0535017 0 -4.89226e-17 
v -0.0532136 0 0.00547204 
v -0.0119824 0 0.000649667 
v -0.0523525 0 0.0108836 
v -0.0509281 0 0.0161748 
v -0.0115626 0 0.00321034 
v -0.0111477 0 0.00444166 
v -0.00825239 0 0.00871195 
v -0.00503867 0 0.0108909 
v -0.00618665 0 0.0102823 
v -0.00257965 0 0.0117194 
v -0.00383162 0 0.0113718 
v -0.0119824 0 -0.000649667 
v -0.0532136 0 -0.00547204 
v -0.0118419 0 0.00194138 
v -0.00726209 0 0.00955312 
v 0 0 0.012 
v -0.00129743 0 0.0119297 
vn -0 1 -0 
vn -0 1 -0 
vn -0 1 -0 
vn -0 1 -0 
vn -0 1 -0 
vn -0 1 -0 
vn -0 1 -0 
vn -0 1 -0 
vn -0 1 -0 
vn -0 1 -0 
vn -0 1 -0 
vn -0 1 -0 
vn -0 1 -0 
vn -0 1 -0 
vn -0 1 -0 
vn -0 1 -0 
vn -0 1 -0 
vn -0 1 -0 
vn -0 1 -0 
vn -0 1 -0 
vn -0 1 -0 
vn -0 1 -0 
vn -0 1 -0 
vn -0 1 -0 
vn -0 1 -0 
vn -0 1 -0 
vn -0 1 -0 
vn -0 1 -0 
vn -0 1 -0 
vn -0 1 -0 
vn -0 1 -0 
vn -0 1 -0 
vn -0 1 -0 
vn -0 1 -0 
vn -0 1 -0 
vn -0 1 -0 
vn -0 1 -0 
vn -0 1 -0 
vn -0 1 -0 
vn -0 1 -0 
vn -0 1 -0 
vn -0 1 -0 
vn -0 1 -0 
vn -0 1 -0 
vn -0 1 -0 
vn -0 1 -0 
vn -0 1 -0 
vn -0 1 -0 
vn -0 1 -0 
vn -0 1 -0 
vn -0 1 -0 
vn -0 1 -0 
vn -0 1 -0 
vn -0 1 -0 
vn -0 1 -0 
vn -0 1 -0 
vn -0 1 -0 
vn -0 1 -0 
vn -0 1 -0 
vn -0 1 -0 
vn -0 1 -0 
vn -0 1 -0 
vn -0 1 -0 
vn -0 1 -0 
vn -0 1 -0 
vn -0 1 -0 
vn -0 1 -0 
vn -0 1 -0 
vn -0 1 -0 
vn -0 1 -0 
vn -0 1 -0 
vn -0 1 -0 
vn -0 1 -0 
vn -0 1 -0 
vn -0 1 -0 
vn -0 1 -0 
vn -0 1 -0 
f 194//194 195//195 196//196 
f 197//197 198//198 199//199 
f 194//194 200//200 198//198 
f 196//196 201//201 194//194 
f 202//202 203//203 204//204 
f 198//198 197//197 194//194 
f 199//199 205//205 197//197 
f 194//194 206//206 195//195 
f 202//202 207//207 203//203 
f 202//202 208//208 209//209 
f 210//210 211//211 212//212 
f 201//201 200//200 194//194 
f 194//194 213//213 214//214 
f 202//202 215//215 207//207 
f 209//209 216//216 202//202 
f 216//216 215//215 202//202 
f 202//202 210//210 217//217 
f 210//210 218//218 211//211 
f 210//210 219//219 220//220 
f 210//210 221//221 222//222 
f 210//210 223//223 224//224 
f 214//214 225//225 194//194 
f 226//226 227//227 194//194 
f 228//228 229//229 230//230 
f 217//217 231//231 202//202 
f 220//220 218//218 210//210 
f 224//224 221//221 210//210 
f 225//225 206//206 194//194 
f 194//194 227//227 232//232 
f 230//230 226//226 228//228 
f 230//230 229//229 202//202 
f 231//231 208//208 202//202 
f 222//222 219//219 210//210 
f 233//233 234//234 235//235 
f 236//236 237//237 234//234 
f 238//238 239//239 237//237 
f 240//240 241//241 242//242 
f 241//241 243//243 244//244 
f 243//243 197//197 245//245 
f 232//232 213//213 194//194 
f 202//202 246//246 230//230 
f 202//202 247//247 248//248 
f 212//212 217//217 210//210 
f 235//235 210//210 233//233 
f 237//237 236//236 238//238 
f 249//249 250//250 239//239 
f 251//251 252//252 250//250 
f 253//253 254//254 255//255 
f 256//256 257//257 258//258 
f 257//257 240//240 259//259 
f 244//244 242//242 241//241 
f 197//197 260//260 245//245 
f 197//197 261//261 262//262 
f 197//197 263//263 264//264 
f 194//194 228//228 226//226 
f 204//204 247//247 202//202 
f 234//234 233//233 236//236 
f 250//250 249//249 251//251 
f 265//265 266//266 253//253 
f 254//254 256//256 267//267 
f 259//259 258//258 257//257 
f 245//245 244//244 243//243 
f 264//264 261//261 197//197 
f 248//248 246//246 202//202 
f 239//239 238//238 249//249 
f 266//266 265//265 252//252 
f 267//267 255//255 254//254 
f 242//242 259//259 240//240 
f 262//262 268//268 197//197 
f 235//235 223//223 210//210 
f 255//255 265//265 253//253 
f 268//268 260//260 197//197 
f 197//197 269//269 270//270 
f 252//252 251//251 266//266 
f 270//270 263//263 197//197 
f 258//258 267//267 256//256 
f 205//205 269//269 197//197 
o mesh3
v -0.04 0 -0.035 
v -0.04 -0.025 -0.035 
v -0.0434615 -0.025 -0.0307521 
v -0.0434615 0 -0.0307521 
v -0.0464578 -0.025 -0.0261643 
v -0.0464578 0 -0.0261643 
v -0.0489559 -0.025 -0.0212872 
v -0.0489559 0 -0.0212872 
v -0.0509281 -0.025 -0.0161748 
v -0.0509281 0 -0.0161748 
v -0.0523525 -0.025 -0.0108836 
v -0.0523525 0 -0.0108836 
v -0.0532136 -0.025 -0.00547204 
v -0.0532136 0 -0.00547204 
v -0.0535017 -0.025 -4.89226e-17 
v -0.0535017 0 -4.89226e-17 
v -0.0532136 -0.025 0.00547204 
v -0.0532136 0 0.00547204 
v -0.0523525 -0.025 0.0108836 
v -0.0523525 0 0.0108836 
v -0.0509281 -0.025 0.0161748 
v -0.0509281 0 0.0161748 
v -0.0489559 -0.025 0.0212872 
v -0.0489559 0 0.0212872 
v -0.0464578 -0.025 0.0261643 
v -0.0464578 0 0.0261643 
v -0.0434615 -0.025 0.0307521 
v -0.0434615 0 0.0307521 
v -0.04 -0.025 0.035 
v -0.04 0 0.035 
vn -0.740929 0 -0.671583 
vn -0.740929 0 -0.671583 
vn -0.807348 0 -0.590075 
vn -0.807348 0 -0.590075 
vn -0.864843 0 -0.502043 
vn -0.864843 0 -0.502043 
vn -0.912776 0 -0.408461 
vn -0.912776 0 -0.408461 
vn -0.950618 0 -0.310364 
vn -0.950618 0 -0.310364 
vn -0.977951 0 -0.208835 
vn -0.977951 0 -0.208835 
vn -0.994472 0 -0.104998 
vn -0.994472 0 -0.104998 
vn -1 0 -1.07188e-15 
vn -1 0 -1.07188e-15 
vn -0.994472 0 0.104998 
vn -0.994472 0 0.104998 
vn -0.977951 0 0.208835 
vn -0.977951 0 0.208835 
vn -0.950618 0 0.310364 
vn -0.950618 0 0.310364 
vn -0.912776 0 0.408461 
vn -0.912776 0 0.408461 
vn -0.864843 0 0.502043 
vn -0.864843 0 0.502043 
vn -0.807348 0 0.590075 
vn -0.807348 0 0.590075 
vn -0.740929 0 0.671583 
vn -0.740929 0 0.671583 
f 271//271 272//272 273//273 
f 274//274 273//273 275//275 
f 276//276 275//275 277//277 
f 278//278 277//277 279//279 
f 280//280 279//279 281//281 
f 282//282 281//281 283//283 
f 284//284 283//283 285//285 
f 286//286 285//285 287//287 
f 288//288 287//287 289//289 
f 290//290 289//289 291//291 
f 292//292 291//291 293//293 
f 294//294 293//293 295//295 
f 296//296 295//295 297//297 
f 298//298 297//297 299//299 
f 299//299 300//300 298//298 
f 297//297 298//298 296//296 
f 295//295 296//296 294//294 
f 293//293 294//294 292//292 
f 291//291 292//292 290//290 
f 289//289 290//290 288//288 
f 287//287 288//288 286//286 
f 285//285 286//286 284//284 
f 283//283 284//284 282//282 
f 281//281 282//282 280//280 
f 279//279 280//280 278//278 
f 277//277 278//278 276//276 
f 275//275 276//276 274//274 
f 273//273 274//274 271//271 
o mesh4
v -0.04 -0.025 -0.035 
v -0.04 0 -0.035 
v 0.145 0 -0.02 
v 0.145 -0.025 -0.02 
vn 0.0808159 -0 -0.996729 
vn 0.0808159 -0 -0.996729 
vn 0.0808159 -0 -0.996729 
vn 0.0808159 -0 -0.996729 
f 301//301 302//302 303//303 
f 303//303 304//304 301//301 
o mesh5
v 0.145 -0.025 -0.02 
v 0.145 0 -0.02 
v 0.155 0 -0.016 
v 0.155 -0.025 -0.016 
vn 0.371391 0 -0.928477 
vn 0.371391 0 -0.928477 
vn 0.371391 0 -0.928477 
vn 0.371391 0 -0.928477 
f 305//305 306//306 307//307 
f 307//307 308//308 305//305 
o mesh6
v 0.155 -0.025 -0.016 
v 0.155 0 -0.016 
v 0.155 0 0.016 
v 0.155 -0.025 0.016 
vn 1 0 0 
vn 1 0 0 
vn 1 0 0 
vn 1 0 0 
f 309//309 310//310 311//311 
f 311//311 312//312 309//309 
o mesh7
v 0.155 -0.025 0.016 
v 0.155 0 0.016 
v 0.145 0 0.02 
v 0.145 -0.025 0.02 
vn 0.371391 0 0.928477 
vn 0.371391 0 0.928477 
vn 0.371391 0 0.928477 
vn 0.371391 0 0.928477 
f 313//313 314//314 315//315 
f 315//315 316//316 313//313 
o mesh8
v 0.145 -0.025 0.02 
v 0.145 0 0.02 
v -0.04 0 0.035 
v -0.04 -0.025 0.035 
vn 0.0808159 0 0.996729 
vn 0.0808159 0 0.996729 
vn 0.0808159 0 0.996729 
vn 0.0808159 0 0.996729 
f 317//317 318//318 319//319 
f 319//319 320//320 317//317 
